<svg width="132" height="132" viewBox="0 0 132 132" fill="none" xmlns="http://www.w3.org/2000/svg">
<rect width="132" height="132" rx="10" fill="white"/>
<path d="M64.4496 38.9862C74.1259 39.02 82.2428 38.2786 90.1772 36.0274C90.7901 35.8539 91.3918 35.6353 91.9844 35.4055C92.3833 35.25 92.7236 34.9908 92.7303 34.5109C92.7371 34.0174 92.3743 33.7627 91.9754 33.6343C90.5828 33.1858 89.1969 32.7013 87.7772 32.3678C85.8798 31.9217 83.9509 31.6129 82.04 31.2231C81.6501 31.1442 81.0394 31.2546 80.938 30.8513C80.8096 30.351 81.4473 30.1888 81.7808 29.9341C83.0022 28.9967 84.2574 28.1066 85.4877 27.1849C85.9294 26.8537 86.3891 26.6689 86.9525 26.777C91.0921 27.5725 95.1663 28.5505 98.8912 30.6372C101.082 31.8653 102.276 33.5284 102.089 36.1919C101.913 38.6933 102.033 41.2194 102.062 43.7342C102.078 45.1043 101.598 46.213 100.579 47.1166C92.7596 54.0775 85.2737 61.399 77.5173 68.4252C74.1957 71.4336 74.1574 71.3908 74.1597 75.8616C74.1597 77.137 74.1259 78.4147 74.1619 79.6902C74.1935 80.7854 73.6684 81.4524 72.7152 81.867C71.5682 82.3673 70.3604 82.6512 69.1232 82.7594C66.1216 83.0253 63.1268 83.1019 60.1996 82.178C58.3112 81.5808 57.9304 81.0761 57.9213 79.1133C57.9101 76.9748 57.8988 74.834 57.9258 72.6955C57.9349 71.9226 57.6667 71.357 57.0966 70.8297C49.0157 63.3234 40.9506 55.7992 32.8765 48.2839C32.5205 47.9527 32.1284 47.6597 31.7453 47.3555C30.578 46.4316 30.0147 45.2328 30.0237 43.7365C30.0417 40.9963 30.0958 38.2538 30.0034 35.5182C29.9313 33.3977 31.0129 32.0343 32.6354 30.9955C35.7159 29.0192 39.2313 28.199 42.7038 27.221C44.9595 26.5855 46.7645 26.901 48.4366 28.5054C49.0811 29.1251 49.8765 29.5848 50.5864 30.1369C50.8365 30.3307 51.3052 30.4569 51.1813 30.8513C51.0686 31.2096 50.6021 31.1262 50.2867 31.1758C47.1701 31.667 44.0807 32.2754 41.0813 33.2737C41.0092 33.2985 40.9371 33.3143 40.8673 33.3458C40.2769 33.6117 39.3867 33.6253 39.3755 34.4838C39.3642 35.3987 40.2588 35.5001 40.9101 35.7142C45.6085 37.2511 50.4669 37.9541 55.3592 38.5107C58.8655 38.9141 62.3832 39.0493 64.4496 38.9862Z" fill="#5C5C5C"/>
<path d="M85.6365 17.962C87.286 17.962 88.9355 17.9529 90.5851 17.9687C90.9028 17.971 91.3647 17.8515 91.4887 18.2279C91.6171 18.6177 91.1507 18.7597 90.8983 18.9445C87.2071 21.6531 83.5047 24.346 79.8113 27.0524C75.6019 30.1351 71.3834 33.202 67.2101 36.3343C66.3222 37.0013 65.6957 36.945 64.8394 36.3118C56.9569 30.5001 49.0473 24.7223 41.1535 18.9264C40.874 18.7214 40.3557 18.5681 40.5112 18.122C40.6577 17.7051 41.1625 17.8358 41.5185 17.8358C44.146 17.8245 46.7736 17.8403 49.3988 17.829C51.3368 17.82 51.3886 17.7592 51.3999 15.7649C51.4089 13.9621 51.4269 12.1616 51.3999 10.3588C51.3864 9.40788 51.7875 9.00451 52.7429 9.00451C61.2249 9.01578 69.7069 9.01804 78.1889 9.00001C79.2299 8.99775 79.5702 9.47999 79.5567 10.4512C79.5297 12.4771 79.5432 14.5052 79.5612 16.5333C79.5725 17.8222 79.7212 17.9101 81.0237 17.8786C82.5605 17.8425 84.0996 17.8696 85.6387 17.8696C85.6365 17.9011 85.6365 17.9304 85.6365 17.962Z" fill="#5C5C5C"/>
<path d="M68.3097 91.8995C68.3097 92.837 68.4111 93.7902 68.2917 94.7118C67.983 97.1027 68.7063 99.1601 70.2071 100.956C72.1248 103.25 72.7603 105.88 72.5575 108.807C72.4696 110.076 72.5642 111.358 72.544 112.633C72.5282 113.582 72.9541 114.031 73.9028 113.981C74.0155 113.974 74.1304 113.97 74.2408 113.986C74.9191 114.089 75.8926 113.616 76.2171 114.294C76.5213 114.932 75.665 115.516 75.2796 116.086C73.8757 118.172 72.4268 120.228 70.9823 122.285C70.3221 123.225 70.0674 123.238 69.4207 122.323C67.7531 119.964 66.1013 117.593 64.4721 115.207C63.8028 114.227 63.929 114.004 65.1211 113.995C67.9875 113.972 67.6743 114.164 67.8951 111.196C68.1633 107.593 67.5278 104.372 65.1076 101.589C63.9673 100.28 63.6947 98.7185 63.7465 96.9833C63.8502 93.5716 63.7668 90.1531 63.7735 86.7369C63.7758 85.3262 63.9583 85.1798 65.351 85.2767C65.7633 85.306 66.1757 85.333 66.5881 85.3217C68.2759 85.2812 68.3052 85.2992 68.3097 86.9442C68.3142 88.596 68.3097 90.2478 68.3097 91.8995Z" fill="#5C5C5C"/>
<path d="M62.4418 88.7541C63.1877 91.4402 61.768 92.8531 59.5506 93.9528C57.9078 94.7663 56.4003 95.8457 54.8048 96.7629C54.0004 97.2248 53.6263 97.8423 53.6601 98.7752C53.7029 99.938 53.6961 101.103 53.6691 102.266C53.6466 103.208 54.0387 103.665 55.0031 103.631C55.6409 103.609 56.2786 103.631 56.9163 103.652C57.5067 103.67 57.8109 103.906 57.4076 104.49C55.5733 107.144 53.7277 109.795 51.8799 112.442C51.5554 112.907 51.2174 112.875 50.9041 112.424C49.0608 109.774 47.2152 107.126 45.3787 104.474C45.0474 103.996 45.1871 103.685 45.782 103.661C46.4198 103.634 47.0598 103.604 47.6952 103.643C48.7769 103.706 49.1667 103.201 49.1442 102.158C49.1036 100.281 49.1938 98.4011 49.1081 96.5285C49.0518 95.2914 49.4574 94.5139 50.5661 93.901C52.6979 92.7202 54.7395 91.3726 56.8465 90.1468C57.5811 89.7209 57.9349 89.1913 57.9101 88.3395C57.8785 87.2511 57.9304 86.1627 57.9169 85.0742C57.9056 84.227 58.1805 83.8777 59.0706 84.2224C59.6971 84.4658 60.3551 84.6821 61.0176 84.77C62.1578 84.921 62.5342 85.5452 62.4553 86.6201C62.399 87.3254 62.4418 88.042 62.4418 88.7541Z" fill="#5C5C5C"/>
<path d="M73.7135 86.8503C73.7135 87.0013 73.7338 87.1545 73.709 87.301C73.4476 88.9212 74.2002 89.8361 75.6289 90.5459C78.0108 91.7313 80.2823 93.1352 82.6439 94.3655C83.7165 94.9244 84.2078 95.668 84.0996 96.8691C84.0388 97.5384 84.0951 98.2189 84.0996 98.895C84.1041 99.6251 84.4511 100.01 85.1993 100.01C85.8753 100.01 86.5491 100.024 87.2251 100.033C87.962 100.044 88.2212 100.321 87.7547 100.993C85.9993 103.519 84.2416 106.043 82.4861 108.569C82.04 109.209 81.6118 109.184 81.1746 108.558C79.3944 106.002 77.6119 103.449 75.8317 100.896C75.4576 100.357 75.5883 100.058 76.2509 100.04C76.8886 100.022 77.5263 100.033 78.164 100.019C78.7319 100.008 79.3516 100.04 79.4913 99.2893C79.613 98.6246 79.5206 98.0026 78.8649 97.6218C78.1505 97.2071 77.4317 96.8038 76.7106 96.4027C74.5472 95.1971 72.3907 93.9825 70.2161 92.7994C69.5131 92.4163 69.1728 91.898 69.184 91.089C69.2088 89.4756 69.2066 87.8621 69.1863 86.2486C69.175 85.4216 69.5604 85.025 70.3603 84.8966C71.1355 84.7704 71.9085 84.5969 72.6611 84.3693C73.4363 84.1349 73.7157 84.4346 73.7135 85.167C73.7135 85.7236 73.7157 86.2869 73.7135 86.8503Z" fill="#5C5C5C"/>
</svg>
