<svg width="74" height="73" viewBox="0 0 74 73" fill="none" xmlns="http://www.w3.org/2000/svg">
<path d="M73.0022 5.70347C73.0022 20.4836 73.0022 35.2636 73.0022 50.0455C72.7915 50.7205 72.663 51.4383 72.3523 52.0633C71.1094 54.5651 69.0166 55.74 66.2577 55.7454C60.1989 55.7561 54.1401 55.749 48.0795 55.749C47.8027 55.749 47.5259 55.749 47.2456 55.749C47.2456 57.2668 47.2456 58.6989 47.2456 60.181C48.1259 60.181 48.9545 60.156 49.783 60.1846C55.124 60.3685 59.6186 64.7149 59.9989 70.0505C60.1489 72.1505 59.365 72.9987 57.2722 72.9987C43.3724 72.9987 29.4709 72.9987 15.5711 72.9987C15.3569 72.9987 15.1426 73.004 14.9301 72.9933C13.7176 72.9254 12.8337 72.0344 12.8498 70.8148C12.8605 70.1076 12.9248 69.3862 13.0748 68.697C14.1658 63.6685 18.3818 60.2382 23.5228 60.1703C24.2246 60.1614 24.9281 60.1685 25.6317 60.1685C25.6317 58.6507 25.6317 57.2347 25.6317 55.7472C25.3192 55.7472 25.0406 55.7472 24.7638 55.7472C18.7514 55.7472 12.7408 55.7561 6.72845 55.7436C2.76245 55.7347 0.0250028 52.9812 0.00357463 49.0116C3.26556e-06 48.2045 0.00357463 47.3956 0.00357463 46.5884C0.00357463 33.353 0.00714599 20.1175 3.26562e-06 6.8838C-0.00178242 4.5767 0.728561 2.59281 2.6696 1.28391C3.56422 0.680345 4.68742 0.417849 5.70704 0C26.2388 0 46.7688 0 67.3006 0C67.3863 0.0357136 67.4702 0.0892841 67.5595 0.10357C69.2005 0.357136 70.5219 1.14819 71.5791 2.42496C72.3755 3.38565 72.7272 4.52313 73.0022 5.70347ZM36.5047 51.4705C46.342 51.4705 56.1793 51.4705 66.0167 51.4705C67.9791 51.4705 68.7255 50.7223 68.7255 48.7598C68.7255 34.8351 68.7255 20.9103 68.7255 6.98559C68.7255 5.02491 67.9773 4.27671 66.0149 4.27671C46.3402 4.27671 26.6656 4.27671 6.99095 4.27671C5.02848 4.27671 4.28207 5.02491 4.28207 6.98737C4.28207 20.9121 4.28207 34.8369 4.28207 48.7616C4.28207 50.7223 5.03027 51.4705 6.99273 51.4705C16.8301 51.4705 26.6674 51.4705 36.5047 51.4705ZM17.5729 68.6845C30.1727 68.6845 42.7242 68.6845 55.3258 68.6845C55.2829 68.5505 55.2597 68.463 55.2258 68.3809C54.2258 65.9274 51.9044 64.4488 49.0098 64.447C40.626 64.4417 32.2423 64.4452 23.8585 64.447C23.5496 64.447 23.2406 64.4542 22.9335 64.4827C20.4514 64.722 18.2318 66.4506 17.5729 68.6845ZM29.978 60.1168C34.3172 60.1168 38.5993 60.1168 42.8617 60.1168C42.8617 58.6346 42.8617 57.2007 42.8617 55.7829C38.5386 55.7829 34.2744 55.7829 29.978 55.7829C29.978 57.2365 29.978 58.6507 29.978 60.1168Z" fill="#5C5C5C"/>
<path d="M47.2421 17.2512C42.3708 17.2512 37.5012 17.2512 32.6299 17.2512C32.3692 17.2512 32.1049 17.2619 31.846 17.2316C30.7532 17.0994 29.9371 16.1673 29.9514 15.087C29.9657 14.0048 30.7996 13.1013 31.8996 12.9906C32.1353 12.9674 32.3746 12.9763 32.6121 12.9763C42.3297 12.9763 52.0474 12.9763 61.7669 12.9763C61.8615 12.9763 61.9562 12.9763 62.0526 12.9763C63.4883 12.9906 64.4615 13.8709 64.4454 15.1405C64.4293 16.3834 63.4704 17.2494 62.0704 17.2512C57.1259 17.2548 52.1831 17.2512 47.2421 17.2512Z" fill="#5C5C5C"/>
<path d="M47.1243 30.0834C42.1815 30.0834 37.2406 30.0887 32.2978 30.0798C30.6246 30.0762 29.5585 28.7048 30.08 27.2477C30.3907 26.3799 31.0371 25.9174 31.9442 25.8174C32.1799 25.7924 32.4192 25.8049 32.6567 25.8049C42.3512 25.8049 52.0456 25.8049 61.7401 25.8049C63.4472 25.8049 64.4454 26.5942 64.4436 27.9441C64.4436 29.2959 63.449 30.0816 61.7383 30.0816C56.867 30.0834 51.9956 30.0834 47.1243 30.0834Z" fill="#5C5C5C"/>
<path d="M47.2689 38.6383C52.2117 38.6383 57.1527 38.633 62.0954 38.6419C63.7686 38.6455 64.8365 40.0169 64.3133 41.4722C64.0025 42.34 63.3561 42.8025 62.449 42.9025C62.2133 42.9275 61.974 42.915 61.7365 42.915C52.0421 42.915 42.3476 42.915 32.6531 42.915C30.9442 42.915 29.9478 42.1275 29.9478 40.7758C29.9478 39.424 30.9424 38.6383 32.6531 38.6383C37.5262 38.6383 42.3976 38.6383 47.2689 38.6383Z" fill="#5C5C5C"/>
<path d="M14.9892 16.4534C15.7802 15.6249 16.4713 14.8785 17.1856 14.157C18.757 12.5714 20.3266 10.9839 21.9265 9.42678C23.2176 8.16966 25.1443 8.65 25.5908 10.3143C25.7997 11.0946 25.5854 11.7874 25.0318 12.3446C22.1855 15.2088 19.3391 18.0713 16.4624 20.9051C15.5695 21.7855 14.3677 21.7623 13.4588 20.8855C12.0249 19.4998 10.6142 18.0873 9.22498 16.6552C8.32322 15.7267 8.34286 14.441 9.20356 13.5963C10.066 12.7517 11.3249 12.7624 12.2642 13.6731C13.1517 14.5303 13.9945 15.4338 14.9892 16.4534Z" fill="#5C5C5C"/>
<path d="M14.9731 29.2371C17.3195 26.88 19.5641 24.6265 21.8051 22.3676C22.4712 21.6962 23.2194 21.3355 24.1765 21.648C25.5872 22.1087 26.114 23.7497 25.2283 24.9408C25.0872 25.1301 24.9193 25.2997 24.7515 25.4676C22.0998 28.1229 19.448 30.7764 16.7927 33.4281C15.5374 34.6799 14.4178 34.6817 13.1678 33.4353C11.8553 32.1282 10.5268 30.8371 9.24463 29.4996C8.01073 28.2139 8.5625 26.2568 10.241 25.8658C11.0553 25.6765 11.7374 25.9586 12.3089 26.5336C13.1749 27.405 14.0356 28.2854 14.9731 29.2371Z" fill="#5C5C5C"/>
<path d="M15.0659 41.963C17.307 39.7131 19.5551 37.4631 21.7944 35.206C22.4587 34.5364 23.2033 34.1667 24.1622 34.4757C25.5782 34.931 26.1139 36.5667 25.2336 37.7631C25.08 37.972 24.8925 38.1577 24.7086 38.3417C22.0729 40.9791 19.4373 43.6166 16.7998 46.2522C15.5409 47.5094 14.4195 47.5165 13.1749 46.2772C11.8624 44.9701 10.5339 43.6773 9.25175 42.3416C8.01427 41.0541 8.54998 39.1042 10.2285 38.7024C11.0428 38.5077 11.7213 38.7899 12.2999 39.3577C13.1624 40.2059 14.0231 41.0577 14.8874 41.9059C14.8999 41.9184 14.9284 41.9202 15.0659 41.963Z" fill="#5C5C5C"/>
</svg>
