<svg width="132" height="132" viewBox="0 0 132 132" fill="none" xmlns="http://www.w3.org/2000/svg">
<rect width="132" height="132" rx="10" fill="white"/>
<path d="M102.646 99.6823C102.534 99.9627 102.44 100.253 102.309 100.523C101.666 101.84 100.573 102.483 99.14 102.602C98.9777 102.615 98.8129 102.605 98.6493 102.605C76.7573 102.605 54.8641 102.604 32.9721 102.61C31.8149 102.61 30.7931 102.321 29.9667 101.479C29.3998 100.901 29.0543 100.2 29.0236 99.4019C28.9781 98.219 29.0125 97.0336 29.0125 95.794C38.1109 95.794 47.181 95.794 56.3126 95.794C56.3126 96.1691 56.3126 96.5478 56.3126 96.9782C62.6443 96.9782 68.9144 96.9782 75.2682 96.9782C75.2682 96.6044 75.2682 96.2109 75.2682 95.7867C75.5276 95.767 75.7059 95.7412 75.8843 95.7412C84.7232 95.7399 93.5621 95.7399 102.401 95.7412C102.482 95.7412 102.565 95.7498 102.646 95.7547C102.646 97.0618 102.646 98.3727 102.646 99.6823Z" fill="#5C5C5C"/>
<path d="M64.4679 32.7092C65.3951 32.0919 66.2583 31.5176 67.1708 30.9102C73.7471 40.771 80.3001 50.5974 86.8949 60.4865C85.9972 61.0841 85.1216 61.667 84.1957 62.2843C83.6239 61.4309 83.0804 60.6205 82.5012 59.756C82.2528 59.8618 82.0142 59.9577 81.7794 60.0622C76.0392 62.6359 70.2991 65.2109 64.5589 67.7871C61.7134 69.0647 59.3844 68.4007 57.6555 65.8097C55.431 62.4761 53.209 59.1424 50.9869 55.8075C49.2924 53.2633 49.5716 50.8642 51.7985 48.7688C56.4184 44.4231 61.0334 40.0725 65.6632 35.7379C66.0407 35.385 66.1464 35.1304 65.8009 34.6853C65.3299 34.0729 64.9315 33.4027 64.4679 32.7092Z" fill="#5C5C5C"/>
<path d="M83.2242 49.9552C83.7628 48.9936 84.2756 48.0553 84.8191 47.1343C84.888 47.0175 85.1118 46.9326 85.2642 46.9314C88.6815 46.9204 92.0988 46.8945 95.5149 46.9351C97.4319 46.9585 98.8756 48.3357 99.1031 50.2294C99.1375 50.5122 99.1474 50.8 99.1474 51.0865C99.1498 63.9785 99.1572 76.8692 99.1289 89.7612C99.1277 90.5126 98.9789 91.3364 98.6444 91.998C97.9705 93.3322 96.7679 93.9052 95.2628 93.904C84.3371 93.8954 73.4113 93.8991 62.4844 93.8991C53.8299 93.8991 45.1742 93.8622 36.5197 93.9261C34.4489 93.9409 32.4494 92.5096 32.4568 89.8621C32.4888 76.9098 32.4703 63.9564 32.4728 51.0041C32.4728 48.4353 33.9914 46.9253 36.5615 46.924C40.8789 46.9216 45.1963 46.9228 49.5125 46.9228C49.6933 46.9228 49.8752 46.9228 50.2073 46.9228C49.3944 47.8291 48.7415 48.7058 48.7046 49.9552C48.4414 49.9552 48.2041 49.9552 47.9655 49.9552C44.1806 49.9552 40.3956 49.954 36.6094 49.9564C35.6773 49.9564 35.5076 50.1261 35.5076 51.0742C35.5064 63.9662 35.5064 76.8569 35.5076 89.7489C35.5076 90.7314 35.6478 90.8642 36.6525 90.8642C56.0901 90.8642 75.5276 90.8642 94.9652 90.8642C95.9846 90.8642 96.115 90.7327 96.115 89.6887C96.1162 76.8385 96.1162 63.9871 96.115 51.1369C96.115 50.1114 95.9612 49.9564 94.9517 49.9552C91.2479 49.954 87.5453 49.9552 83.8415 49.9552C83.6202 49.9552 83.3964 49.9552 83.2242 49.9552Z" fill="#5C5C5C"/>
<path d="M50.222 56.9082C52.2891 60.007 54.3156 63.0468 56.384 66.1493C56.2118 66.2747 56.0581 66.394 55.897 66.5022C53.6381 68.011 51.3792 69.5198 49.119 71.0249C48.048 71.7382 47.2425 71.5771 46.5268 70.5073C45.1422 68.4352 43.7588 66.3632 42.3791 64.2875C41.7077 63.278 41.87 62.4442 42.8673 61.7777C45.1594 60.2456 47.4553 58.7183 49.7511 57.191C49.8839 57.1013 50.0241 57.025 50.222 56.9082Z" fill="#5C5C5C"/>
<path d="M50.9648 71.124C52.6519 69.9976 54.3157 68.8872 56.0606 67.7227C59.4926 72.8676 62.9111 77.9905 66.3665 83.1687C64.6622 84.3061 62.9997 85.4153 61.272 86.57C57.8338 81.4201 54.4116 76.2911 50.9648 71.124Z" fill="#5C5C5C"/>
<path d="M75.5867 41.3118C77.7595 39.6591 80.7157 40.1399 82.1593 42.3263C83.5833 44.4819 82.8738 47.3422 80.5275 48.7133C78.8884 46.2576 77.2467 43.7995 75.5867 41.3118Z" fill="#5C5C5C"/>
<path d="M84.3223 29C84.9642 29.2496 85.5102 29.4624 86.1361 29.7058C85.1647 32.207 84.208 34.6701 83.2193 37.2143C82.6008 36.9757 82.0228 36.7531 81.3969 36.5109C82.3733 34.0048 83.3337 31.5393 84.3223 29Z" fill="#5C5C5C"/>
<path d="M85.3589 38.8015C87.6228 37.2914 89.8104 35.833 92.0656 34.3291C92.4235 34.864 92.7665 35.378 93.149 35.9511C90.9048 37.45 88.7074 38.917 86.446 40.4271C86.0722 39.8676 85.7217 39.3437 85.3589 38.8015Z" fill="#5C5C5C"/>
<path d="M87.3092 44.907C87.3092 44.2418 87.3092 43.6404 87.3092 42.9629C90.012 43.0281 92.6559 43.0932 95.3673 43.1584C95.3353 43.8372 95.3083 44.4225 95.2763 45.0988C92.6017 45.0349 89.9604 44.971 87.3092 44.907Z" fill="#5C5C5C"/>
<path d="M59.5074 70.4445C59.9599 70.142 60.3473 69.8838 60.7949 69.585C61.6655 71.4147 63.2604 72.4317 65.0225 73.4302C64.1826 73.9909 63.4153 74.5012 62.5853 75.0546C61.556 73.5138 60.5538 72.0111 59.5074 70.4445Z" fill="#5C5C5C"/>
</svg>
