<svg width="73" height="114" viewBox="0 0 73 114" fill="none" xmlns="http://www.w3.org/2000/svg">
<path d="M34.4496 29.9862C44.1259 30.02 52.2428 29.2786 60.1772 27.0274C60.7901 26.8539 61.3918 26.6353 61.9844 26.4055C62.3833 26.25 62.7236 25.9908 62.7303 25.5109C62.7371 25.0174 62.3743 24.7627 61.9754 24.6343C60.5828 24.1858 59.1969 23.7013 57.7772 23.3678C55.8798 22.9217 53.9509 22.6129 52.04 22.2231C51.6501 22.1442 51.0394 22.2546 50.938 21.8513C50.8096 21.351 51.4473 21.1888 51.7808 20.9341C53.0022 19.9967 54.2574 19.1066 55.4877 18.1849C55.9294 17.8537 56.3891 17.6689 56.9525 17.777C61.0921 18.5725 65.1663 19.5505 68.8912 21.6372C71.0816 22.8653 72.2759 24.5284 72.0889 27.1919C71.9131 29.6933 72.0325 32.2194 72.0618 34.7342C72.0776 36.1043 71.5976 37.213 70.5791 38.1166C62.7596 45.0775 55.2737 52.399 47.5173 59.4252C44.1957 62.4336 44.1574 62.3908 44.1597 66.8616C44.1597 68.137 44.1259 69.4147 44.1619 70.6902C44.1935 71.7854 43.6684 72.4524 42.7152 72.867C41.5682 73.3673 40.3604 73.6512 39.1232 73.7594C36.1216 74.0253 33.1268 74.1019 30.1996 73.178C28.3112 72.5808 27.9304 72.0761 27.9213 70.1133C27.9101 67.9748 27.8988 65.834 27.9258 63.6955C27.9349 62.9226 27.6667 62.357 27.0966 61.8297C19.0157 54.3234 10.9506 46.7992 2.87654 39.2839C2.5205 38.9527 2.1284 38.6597 1.74531 38.3555C0.578028 37.4316 0.0146663 36.2328 0.0236801 34.7365C0.0417077 31.9963 0.0957904 29.2538 0.00339911 26.5182C-0.0687111 24.3977 1.01294 23.0343 2.63542 21.9955C5.71588 20.0192 9.23126 19.199 12.7038 18.221C14.9595 17.5855 16.7645 17.901 18.4366 19.5054C19.0811 20.1251 19.8765 20.5848 20.5864 21.1369C20.8365 21.3307 21.3052 21.4569 21.1813 21.8513C21.0686 22.2096 20.6021 22.1262 20.2867 22.1758C17.1701 22.667 14.0807 23.2754 11.0813 24.2737C11.0092 24.2985 10.9371 24.3143 10.8673 24.3458C10.2769 24.6117 9.38675 24.6253 9.37548 25.4838C9.36421 26.3987 10.2588 26.5001 10.9101 26.7142C15.6085 28.2511 20.4669 28.9541 25.3592 29.5107C28.8655 29.9141 32.3832 30.0493 34.4496 29.9862Z" fill="#5C5C5C"/>
<path d="M55.6365 8.96196C57.286 8.96196 58.9355 8.95295 60.5851 8.96872C60.9028 8.97098 61.3647 8.85154 61.4887 9.22787C61.6171 9.61771 61.1507 9.75968 60.8983 9.94446C57.2071 12.6531 53.5047 15.346 49.8113 18.0524C45.6019 21.1351 41.3834 24.202 37.2101 27.3343C36.3222 28.0013 35.6957 27.945 34.8394 27.3118C26.9569 21.5001 19.0473 15.7223 11.1535 9.92644C10.874 9.72137 10.3557 9.56814 10.5112 9.12196C10.6577 8.70507 11.1625 8.83577 11.5185 8.83577C14.146 8.8245 16.7736 8.84028 19.3988 8.82901C21.3368 8.81999 21.3886 8.75915 21.3999 6.76485C21.4089 4.9621 21.4269 3.16159 21.3999 1.35884C21.3864 0.407882 21.7875 0.00451475 22.7429 0.00451475C31.2249 0.015782 39.7069 0.0180354 48.1889 7.8608e-06C49.2299 -0.00224558 49.5702 0.479992 49.5567 1.45123C49.5297 3.47707 49.5432 5.50518 49.5612 7.53328C49.5725 8.82225 49.7212 8.91013 51.0237 8.87858C52.5605 8.84253 54.0996 8.86957 55.6387 8.86957C55.6365 8.90112 55.6365 8.93041 55.6365 8.96196Z" fill="#5C5C5C"/>
<path d="M38.3097 82.8995C38.3097 83.837 38.4111 84.7902 38.2917 85.7118C37.983 88.1027 38.7063 90.1601 40.2071 91.9561C42.1248 94.2502 42.7603 96.8799 42.5575 99.8071C42.4696 101.076 42.5642 102.358 42.544 103.633C42.5282 104.582 42.9541 105.031 43.9028 104.981C44.0155 104.974 44.1304 104.97 44.2408 104.986C44.9191 105.089 45.8926 104.616 46.2171 105.294C46.5213 105.932 45.665 106.516 45.2796 107.086C43.8757 109.172 42.4268 111.228 40.9823 113.285C40.3221 114.225 40.0674 114.238 39.4207 113.323C37.7531 110.964 36.1013 108.593 34.4721 106.207C33.8028 105.227 33.929 105.004 35.1211 104.995C37.9875 104.972 37.6743 105.164 37.8951 102.196C38.1633 98.5925 37.5278 95.3724 35.1076 92.5894C33.9673 91.2801 33.6947 89.7185 33.7465 87.9833C33.8502 84.5716 33.7668 81.1531 33.7735 77.7369C33.7758 76.3262 33.9583 76.1798 35.351 76.2767C35.7633 76.306 36.1757 76.333 36.5881 76.3217C38.2759 76.2812 38.3052 76.2992 38.3097 77.9442C38.3142 79.596 38.3097 81.2478 38.3097 82.8995Z" fill="#5C5C5C"/>
<path d="M32.4418 79.7541C33.1877 82.4402 31.768 83.8531 29.5506 84.9528C27.9078 85.7663 26.4003 86.8457 24.8048 87.7629C24.0004 88.2248 23.6263 88.8423 23.6601 89.7752C23.7029 90.938 23.6961 92.103 23.6691 93.2658C23.6466 94.2077 24.0387 94.6652 25.0031 94.6314C25.6409 94.6088 26.2786 94.6314 26.9163 94.6517C27.5067 94.6697 27.8109 94.9063 27.4076 95.4899C25.5733 98.1445 23.7277 100.795 21.8799 103.442C21.5554 103.907 21.2174 103.875 20.9041 103.424C19.0608 100.774 17.2152 98.1265 15.3787 95.4742C15.0474 94.9964 15.1871 94.6855 15.782 94.6607C16.4198 94.6336 17.0598 94.6043 17.6952 94.6426C18.7769 94.7057 19.1667 94.201 19.1442 93.1576C19.1036 91.2805 19.1938 89.4011 19.1081 87.5285C19.0518 86.2914 19.4574 85.5139 20.5661 84.901C22.6979 83.7202 24.7395 82.3726 26.8465 81.1468C27.5811 80.7209 27.9349 80.1913 27.9101 79.3395C27.8785 78.2511 27.9304 77.1627 27.9169 76.0742C27.9056 75.227 28.1805 74.8777 29.0706 75.2224C29.6971 75.4658 30.3551 75.6821 31.0176 75.77C32.1578 75.921 32.5342 76.5452 32.4553 77.6201C32.399 78.3254 32.4418 79.042 32.4418 79.7541Z" fill="#5C5C5C"/>
<path d="M43.7135 77.8503C43.7135 78.0013 43.7338 78.1545 43.709 78.301C43.4476 79.9212 44.2002 80.8361 45.6289 81.5459C48.0108 82.7313 50.2823 84.1352 52.6439 85.3655C53.7165 85.9244 54.2078 86.668 54.0996 87.8691C54.0388 88.5384 54.0951 89.2189 54.0996 89.895C54.1041 90.6251 54.4511 91.0104 55.1993 91.0104C55.8753 91.0104 56.5491 91.0239 57.2251 91.033C57.962 91.0442 58.2212 91.3214 57.7547 91.9929C55.9993 94.519 54.2416 97.0429 52.4861 99.569C52.04 100.209 51.6118 100.184 51.1746 99.5577C49.3944 97.0023 47.6119 94.4492 45.8317 91.896C45.4576 91.3574 45.5883 91.0577 46.2509 91.0397C46.8886 91.0217 47.5263 91.033 48.164 91.0194C48.7319 91.0082 49.3516 91.0397 49.4913 90.2893C49.613 89.6246 49.5206 89.0026 48.8649 88.6218C48.1505 88.2071 47.4317 87.8038 46.7106 87.4027C44.5472 86.1971 42.3907 84.9825 40.2161 83.7994C39.5131 83.4163 39.1728 82.898 39.184 82.089C39.2088 80.4756 39.2066 78.8621 39.1863 77.2486C39.175 76.4216 39.5604 76.025 40.3603 75.8966C41.1355 75.7704 41.9085 75.5969 42.6611 75.3693C43.4363 75.1349 43.7157 75.4346 43.7135 76.167C43.7135 76.7236 43.7157 77.2869 43.7135 77.8503Z" fill="#5C5C5C"/>
</svg>
