<svg width="94" height="88" viewBox="0 0 94 88" fill="none" xmlns="http://www.w3.org/2000/svg">
<path d="M75.0648 18.4613C76.0747 17.4532 77.0795 16.4501 78.0859 15.4453C74.4606 11.6026 65.6094 9.22159 58.2816 14.2643C50.9298 19.3223 49.0093 29.358 53.9784 36.7697C58.9303 44.1574 68.9215 46.22 76.3571 41.3947C84.106 36.364 86.2747 25.9141 80.6484 17.9889C81.1448 17.4891 81.6668 16.9807 82.1684 16.4518C82.6579 15.9366 83.1252 15.4008 83.6079 14.8685C88.7687 20.6284 90.6447 32.095 83.5548 40.7836C76.4581 49.4808 63.7299 50.9255 54.8359 44.0513C45.971 37.1993 44.196 24.4746 50.8545 15.4231C58.1909 5.45072 72.487 4.21144 81.3912 12.2581C82.1153 11.7275 82.7486 11.1592 82.5723 10.1151C82.2796 8.37259 82.978 7.11278 84.2977 5.97107C85.84 4.63595 87.2059 3.09884 88.7156 1.58398C88.7156 2.86947 88.7242 4.01802 88.7139 5.16657C88.7036 6.27575 88.7721 6.34593 89.8539 6.33566C91.0076 6.32368 92.1613 6.33395 93.3851 6.33395C93.1831 6.55476 93.0068 6.76359 92.8134 6.95701C91.201 8.57286 89.6108 10.211 87.9539 11.7789C87.5842 12.1281 86.9526 12.4636 86.4904 12.4071C84.5356 12.1674 83.221 13.0079 81.9133 14.3841C78.5943 17.8777 75.1298 21.236 71.7099 24.632C71.1912 25.1455 70.7992 25.5632 71.525 26.2359C71.9187 26.6005 71.6893 26.9873 71.234 27.1585C69.8732 27.672 68.5107 28.1804 67.1362 28.6528C66.5251 28.8616 66.1759 28.5073 66.3882 27.8894C66.8503 26.5406 67.3553 25.2072 67.8551 23.872C68.0862 23.2541 68.4833 23.1428 68.9489 23.6273C69.4042 24.1014 69.7602 23.9816 70.1728 23.5673C70.753 22.9854 71.3744 22.4428 72.0659 21.8026C70.3953 20.5428 68.6784 20.0789 66.811 20.2535C63.0179 20.6078 60.1353 23.7522 60.0686 27.5351C60.0001 31.3419 62.7799 34.6061 66.5063 35.0939C70.3148 35.5938 73.8392 33.194 74.7704 29.4642C75.1572 27.9202 75.01 26.4156 74.4743 24.9247C74.3887 24.6851 74.3955 24.2726 74.5444 24.1117C75.4465 23.1292 76.4016 22.1963 77.3448 21.2411C79.7138 24.1408 80.8212 30.9944 76.0644 35.9173C71.7527 40.3797 64.7398 40.7888 59.9847 36.8536C55.1748 32.8739 54.2625 25.8867 57.8451 20.8201C61.4773 15.6833 69.1834 13.8689 75.0648 18.4613Z" fill="#5C5C5C"/>
<path d="M35.5793 69.855C36.5053 69.855 37.2961 69.855 38.1057 69.855C38.1057 65.1307 38.1057 60.444 38.1057 55.8755C36.8066 55.4921 35.593 55.2593 34.4889 54.7783C32.6643 53.9824 31.8375 52.2929 32.2261 50.5487C32.553 49.0818 33.7923 47.8202 35.1377 47.6268C36.7022 47.4026 37.849 48.1574 38.5268 49.4412C39.102 50.5316 39.434 51.764 39.7729 52.9605C39.9287 53.5099 40.0793 53.8112 40.711 53.7616C41.3871 53.7085 42.0718 53.7496 42.7975 53.7496C42.9293 53.1522 43.0081 52.5873 43.1826 52.055C43.4582 51.2197 43.7184 50.3621 44.1361 49.5936C44.8139 48.3457 45.8324 47.4745 47.3643 47.6251C48.8501 47.7706 49.7967 48.7035 50.3067 50.0437C50.8391 51.4405 50.5909 52.7482 49.557 53.8523C48.6635 54.8091 47.4927 55.2439 46.2397 55.4989C44.6701 55.819 44.6633 55.8207 44.6496 57.4366C44.6188 61.2297 44.5931 65.0228 44.5674 68.8177C44.5657 69.1275 44.5674 69.4373 44.5674 69.819C45.4096 69.819 46.1918 69.819 47.0768 69.819C47.1452 68.958 47.1401 68.0474 47.301 67.1659C47.6023 65.5175 47.8214 63.8195 48.4119 62.2704C48.8946 61.002 49.6854 59.7371 50.6508 58.7871C53.5145 55.9748 56.219 53.0683 58.0111 49.3625C58.7728 49.65 59.4832 49.9188 60.286 50.2218C60.0754 50.66 59.9025 51.069 59.6869 51.4542C58.1361 54.2374 56.3405 56.8751 53.8928 58.9206C51.0445 61.3016 49.8138 64.3125 49.6854 67.907C49.634 69.3534 49.557 70.7981 49.4885 72.2924C49.1496 72.3095 48.8723 72.3352 48.5933 72.3352C43.7441 72.3386 38.8948 72.3249 34.0456 72.3506C33.3575 72.354 33.1281 72.1829 33.1093 71.4554C33.0631 69.6341 32.945 67.8112 32.7772 65.9951C32.5427 63.4755 31.4678 61.3683 29.5524 59.6806C27.3991 57.784 25.5504 55.617 24.0356 53.1779C19.604 46.0401 19.1829 38.6438 23.3629 31.3674C27.637 23.9249 34.3845 20.5871 42.9516 20.9517C43.5164 20.9756 44.0779 21.0818 44.7574 21.1656C44.5965 21.9017 44.4921 22.5966 44.2679 23.2505C44.2199 23.3926 43.7407 23.4747 43.4753 23.4439C40.4097 23.1033 37.4433 23.4918 34.5779 24.6267C24.0578 28.7947 19.7837 41.4424 25.6326 51.129C27.0242 53.4346 28.6007 55.6222 30.677 57.3544C33.9446 60.0794 35.2318 63.6569 35.4646 67.7513C35.5022 68.4291 35.5382 69.1087 35.5793 69.855ZM40.2539 55.8293C40.2539 60.5279 40.2539 65.1752 40.2539 69.8293C41.0721 69.8293 41.7654 69.8293 42.5545 69.8293C42.5545 65.1392 42.5545 60.5125 42.5545 55.8293C41.7756 55.8293 40.9968 55.8293 40.2539 55.8293ZM38.0732 53.5904C37.5837 52.3905 37.2345 51.3309 36.7261 50.3536C36.4112 49.7528 35.8052 49.4036 35.0692 49.8041C34.0131 50.3775 33.8505 51.8376 34.7799 52.5976C35.6426 53.3045 36.6782 53.5236 38.0732 53.5904ZM44.718 53.6914C46.1747 53.4928 47.3215 53.3285 48.15 52.3785C48.797 51.6373 48.595 50.4682 47.7717 49.9C47.1007 49.4361 46.3835 49.6209 45.8991 50.5778C45.4352 51.4918 45.1597 52.5 44.718 53.6914Z" fill="#5C5C5C"/>
<path d="M41.3118 77.3498C39.0318 77.3481 36.7518 77.3498 34.4718 77.3481C33.402 77.3464 32.7704 76.8483 32.7413 75.9941C32.7105 75.1057 33.3541 74.5443 34.4581 74.5426C39.0472 74.5358 43.6363 74.5375 48.2253 74.5426C49.3311 74.5443 49.9901 75.1006 49.9678 75.9787C49.9456 76.8209 49.3037 77.3429 48.2407 77.3481C45.9299 77.3583 43.6209 77.3515 41.3118 77.3498Z" fill="#5C5C5C"/>
<path d="M41.3665 79.1737C43.6465 79.1737 45.9265 79.1686 48.2065 79.1754C49.3208 79.1789 49.9815 79.7198 49.9661 80.5927C49.9524 81.4623 49.2968 81.9792 48.1688 81.9809C43.6089 81.986 39.0472 81.9878 34.4872 81.9809C33.3678 81.9792 32.7259 81.4452 32.7344 80.5602C32.743 79.6907 33.3986 79.1806 34.5232 79.1789C36.8031 79.1754 39.0831 79.1789 41.3631 79.1789C41.3665 79.1771 41.3665 79.1754 41.3665 79.1737Z" fill="#5C5C5C"/>
<path d="M8.52586 42.5791C6.15858 42.5791 3.79301 42.5894 1.42572 42.574C0.46546 42.5688 -0.0463378 42.0707 0.00330146 41.2645C0.0495174 40.5388 0.532217 40.1417 1.43428 40.1365C3.54481 40.1262 5.65534 40.1331 7.76415 40.1331C10.33 40.1331 12.8975 40.1297 15.4634 40.1348C16.4904 40.1365 16.9953 40.5319 17.0159 41.3142C17.0381 42.1341 16.5075 42.574 15.4548 42.5757C13.1457 42.5842 10.8349 42.5791 8.52586 42.5791Z" fill="#5C5C5C"/>
<path d="M77.3413 61.1352C77.3191 62.2735 76.5043 62.8503 75.7135 62.573C75.5269 62.508 75.354 62.3984 75.1829 62.2991C71.1826 59.9901 67.1807 57.6793 63.1838 55.3633C62.9391 55.2213 62.6755 55.0723 62.5026 54.8601C62.1123 54.3791 62.1312 53.8468 62.5214 53.3709C62.9665 52.8283 63.5313 52.765 64.1304 53.1056C65.6162 53.9529 67.0968 54.8122 68.5791 55.6663C71.1963 57.1777 73.8238 58.6738 76.4221 60.2177C76.8415 60.4693 77.1376 60.9281 77.3413 61.1352Z" fill="#5C5C5C"/>
<path d="M21.5621 5.36632C21.7316 5.51181 22.1612 5.73262 22.3666 6.08352C24.7955 10.2344 27.197 14.4007 29.59 18.5704C29.9837 19.2568 29.8074 19.9175 29.21 20.2786C28.5869 20.6552 27.892 20.4721 27.476 19.7566C25.0762 15.6228 22.6816 11.4839 20.3057 7.33648C19.7494 6.36766 20.2835 5.35433 21.5621 5.36632Z" fill="#5C5C5C"/>
<path d="M20.441 28.2715C20.4547 29.5553 19.4876 30.103 18.5564 29.593C17.3805 28.9511 16.2319 28.2578 15.0714 27.5886C12.2556 25.9642 9.4399 24.3415 6.62586 22.7171C6.3537 22.5596 6.06956 22.4158 5.82992 22.219C5.32497 21.8013 5.20173 21.2553 5.5338 20.6904C5.87956 20.1033 6.42046 19.891 7.0709 20.1769C7.40811 20.3258 7.71621 20.5381 8.03801 20.7229C11.891 22.9447 15.7475 25.1579 19.5851 27.4054C19.984 27.6399 20.2578 28.0832 20.441 28.2715Z" fill="#5C5C5C"/>
<path d="M20.4478 54.3945C20.3109 54.5605 20.1038 55.0021 19.7563 55.2058C15.5969 57.6416 11.422 60.0465 7.24035 62.4429C6.55054 62.8383 5.89496 62.65 5.5355 62.0441C5.17433 61.433 5.32839 60.7534 6.00964 60.358C10.2016 57.9223 14.397 55.4951 18.6078 53.0919C19.4824 52.5938 20.4341 53.1638 20.4478 54.3945Z" fill="#5C5C5C"/>
<path d="M40.1221 8.52241C40.1238 6.15684 40.1136 3.79127 40.1273 1.42399C40.1324 0.446604 40.699 -0.11141 41.5274 0.018679C42.3354 0.147057 42.5579 0.710206 42.5562 1.44966C42.5493 4.44342 42.5527 7.43548 42.5545 10.4292C42.5545 12.1392 42.563 13.8492 42.5527 15.5592C42.5459 16.5143 42.1334 17.009 41.3768 17.0227C40.5946 17.0364 40.1273 16.4955 40.1238 15.5335C40.117 13.1971 40.1221 10.8606 40.1221 8.52241Z" fill="#5C5C5C"/>
<path d="M66.9582 23.682C66.5114 24.8973 66.0784 26.1006 65.6265 27.2954C65.3714 27.9698 65.2448 28.622 65.8182 29.2039C66.3882 29.7808 67.0318 29.6901 67.7165 29.4282C68.9865 28.9421 70.2703 28.4885 71.5712 28.0126C71.6825 30.0273 69.8219 31.8211 67.6583 31.881C65.2431 31.9478 63.314 30.0752 63.3277 27.6788C63.3431 25.5289 65.0787 23.5879 66.9582 23.682Z" fill="#5C5C5C"/>
<path d="M37.5443 83.915C40.0896 83.915 42.5561 83.915 45.1186 83.915C45.1357 85.293 44.5657 86.3457 43.4616 87.08C42.1607 87.9444 40.7708 87.9838 39.4203 87.1981C38.2033 86.4894 37.5991 85.3888 37.5443 83.915Z" fill="#5C5C5C"/>
</svg>
