<svg width="21" height="16" viewBox="0 0 21 16" fill="none" xmlns="http://www.w3.org/2000/svg">
<path d="M11.5767 15.7654C11.4992 15.6911 11.4378 15.6029 11.3958 15.5058C11.3539 15.4086 11.3323 15.3046 11.3323 15.1994C11.3323 15.0943 11.3539 14.9902 11.3958 14.8931C11.4378 14.796 11.4992 14.7078 11.5767 14.6335L17.6546 8.79985L1.3333 8.79985C1.1123 8.79985 0.900343 8.71557 0.744068 8.56555C0.587793 8.41554 0.5 8.21207 0.5 7.99991C0.5 7.78775 0.587793 7.58428 0.744068 7.43426C0.900343 7.28424 1.1123 7.19996 1.33331 7.19996L17.6546 7.19996L11.5767 1.36635C11.4204 1.21625 11.3325 1.01267 11.3325 0.800391C11.3325 0.588114 11.4204 0.384531 11.5767 0.234429C11.7331 0.0843262 11.9452 -3.72363e-07 12.1663 -3.64278e-07C12.3874 -3.56194e-07 12.5995 0.0843263 12.7558 0.234429L20.2556 7.43395C20.3331 7.50824 20.3945 7.59646 20.4365 7.69358C20.4784 7.79069 20.5 7.89478 20.5 7.99991C20.5 8.10503 20.4784 8.20913 20.4365 8.30624C20.3945 8.40335 20.3331 8.49158 20.2556 8.56587L12.7558 15.7654C12.6785 15.8398 12.5866 15.8988 12.4854 15.939C12.3842 15.9793 12.2758 16 12.1663 16C12.0568 16 11.9483 15.9793 11.8472 15.939C11.746 15.8988 11.6541 15.8398 11.5767 15.7654Z" fill="white"/>
</svg>
